<svg width="96" height="32" viewBox="0 0 96 32" fill="none" xmlns="http://www.w3.org/2000/svg">
<path d="M0 0H88C92.4183 0 96 3.58172 96 8V24C96 28.4183 92.4183 32 88 32H0V0Z" fill="#EB5757"/>
<path d="M17.9223 11.48V9.986H21.3063V23H19.6503V11.48H17.9223ZM32.4179 11.408H26.0999V15.512C26.3759 15.128 26.7839 14.816 27.3239 14.576C27.8639 14.324 28.4459 14.198 29.0699 14.198C30.0659 14.198 30.8759 14.408 31.4999 14.828C32.1239 15.236 32.5679 15.77 32.8319 16.43C33.1079 17.078 33.2459 17.768 33.2459 18.5C33.2459 19.364 33.0839 20.138 32.7599 20.822C32.4359 21.506 31.9379 22.046 31.2659 22.442C30.6059 22.838 29.7839 23.036 28.7999 23.036C27.5399 23.036 26.5199 22.712 25.7399 22.064C24.9599 21.416 24.4859 20.552 24.3179 19.472H25.9199C26.0759 20.156 26.4059 20.69 26.9099 21.074C27.4139 21.458 28.0499 21.65 28.8179 21.65C29.7659 21.65 30.4799 21.368 30.9599 20.804C31.4399 20.228 31.6799 19.472 31.6799 18.536C31.6799 17.6 31.4399 16.88 30.9599 16.376C30.4799 15.86 29.7719 15.602 28.8359 15.602C28.1999 15.602 27.6419 15.758 27.1619 16.07C26.6939 16.37 26.3519 16.784 26.1359 17.312H24.5879V9.968H32.4179V11.408ZM35.0626 12.92C35.0626 12.104 35.3086 11.456 35.8006 10.976C36.2926 10.484 36.9226 10.238 37.6906 10.238C38.4586 10.238 39.0886 10.484 39.5806 10.976C40.0726 11.456 40.3186 12.104 40.3186 12.92C40.3186 13.748 40.0726 14.408 39.5806 14.9C39.0886 15.38 38.4586 15.62 37.6906 15.62C36.9226 15.62 36.2926 15.38 35.8006 14.9C35.3086 14.408 35.0626 13.748 35.0626 12.92ZM45.5746 10.436L38.2846 23H36.6646L43.9546 10.436H45.5746ZM37.6906 11.246C37.2826 11.246 36.9586 11.39 36.7186 11.678C36.4906 11.954 36.3766 12.368 36.3766 12.92C36.3766 13.472 36.4906 13.892 36.7186 14.18C36.9586 14.468 37.2826 14.612 37.6906 14.612C38.0986 14.612 38.4226 14.468 38.6626 14.18C38.9026 13.88 39.0226 13.46 39.0226 12.92C39.0226 12.368 38.9026 11.954 38.6626 11.678C38.4226 11.39 38.0986 11.246 37.6906 11.246ZM41.9566 20.516C41.9566 19.688 42.2026 19.034 42.6946 18.554C43.1866 18.062 43.8166 17.816 44.5846 17.816C45.3526 17.816 45.9766 18.062 46.4566 18.554C46.9486 19.034 47.1946 19.688 47.1946 20.516C47.1946 21.332 46.9486 21.986 46.4566 22.478C45.9766 22.97 45.3526 23.216 44.5846 23.216C43.8166 23.216 43.1866 22.976 42.6946 22.496C42.2026 22.004 41.9566 21.344 41.9566 20.516ZM44.5666 18.842C44.1586 18.842 43.8346 18.986 43.5946 19.274C43.3546 19.55 43.2346 19.964 43.2346 20.516C43.2346 21.056 43.3546 21.47 43.5946 21.758C43.8346 22.034 44.1586 22.172 44.5666 22.172C44.9746 22.172 45.2986 22.034 45.5386 21.758C45.7786 21.47 45.8986 21.056 45.8986 20.516C45.8986 19.964 45.7786 19.55 45.5386 19.274C45.2986 18.986 44.9746 18.842 44.5666 18.842ZM59.8377 23.126C58.6737 23.126 57.6117 22.856 56.6517 22.316C55.6917 21.764 54.9297 21.002 54.3657 20.03C53.8137 19.046 53.5377 17.942 53.5377 16.718C53.5377 15.494 53.8137 14.396 54.3657 13.424C54.9297 12.44 55.6917 11.678 56.6517 11.138C57.6117 10.586 58.6737 10.31 59.8377 10.31C61.0137 10.31 62.0817 10.586 63.0417 11.138C64.0017 11.678 64.7577 12.434 65.3097 13.406C65.8617 14.378 66.1377 15.482 66.1377 16.718C66.1377 17.954 65.8617 19.058 65.3097 20.03C64.7577 21.002 64.0017 21.764 63.0417 22.316C62.0817 22.856 61.0137 23.126 59.8377 23.126ZM59.8377 21.704C60.7137 21.704 61.4997 21.5 62.1957 21.092C62.9037 20.684 63.4557 20.102 63.8517 19.346C64.2597 18.59 64.4637 17.714 64.4637 16.718C64.4637 15.71 64.2597 14.834 63.8517 14.09C63.4557 13.334 62.9097 12.752 62.2137 12.344C61.5177 11.936 60.7257 11.732 59.8377 11.732C58.9497 11.732 58.1577 11.936 57.4617 12.344C56.7657 12.752 56.2137 13.334 55.8057 14.09C55.4097 14.834 55.2117 15.71 55.2117 16.718C55.2117 17.714 55.4097 18.59 55.8057 19.346C56.2137 20.102 56.7657 20.684 57.4617 21.092C58.1697 21.5 58.9617 21.704 59.8377 21.704ZM72.3141 14.486H70.2441V23H68.6061V14.486H67.3281V13.136H68.6061V12.434C68.6061 11.33 68.8881 10.526 69.4521 10.022C70.0281 9.506 70.9461 9.248 72.2061 9.248V10.616C71.4861 10.616 70.9761 10.76 70.6761 11.048C70.3881 11.324 70.2441 11.786 70.2441 12.434V13.136H72.3141V14.486ZM78.2379 14.486H76.1679V23H74.5299V14.486H73.2519V13.136H74.5299V12.434C74.5299 11.33 74.8119 10.526 75.3759 10.022C75.9519 9.506 76.8699 9.248 78.1299 9.248V10.616C77.4099 10.616 76.8999 10.76 76.5999 11.048C76.3119 11.324 76.1679 11.786 76.1679 12.434V13.136H78.2379V14.486Z" fill="white"/>
</svg>
